<svg enable-background="new 0 0 26 26" viewBox="0 0 26 26" xmlns="http://www.w3.org/2000/svg"><path d="m7.12 9.39v-8.39h12.93v5.82h5.25" fill="none" stroke="#00673e" stroke-linejoin="round" stroke-miterlimit="10"/><path d="m20.19 1.14 5.11 5.68v18.18h-18.18v-6.78" fill="none" stroke="#00673e" stroke-linecap="round" stroke-linejoin="round" stroke-miterlimit="10"/><path d="m.69 9.73h17.29v8.2h-17.29z" fill="none" stroke="#00673e" stroke-linejoin="round" stroke-miterlimit="10"/><g fill="#00673e"><path d="m4.8 13.92 1.34 2.24h-1.02l-.8-1.44-.84 1.44h-.99l1.35-2.24-1.23-2.17h1.03l.71 1.42.77-1.42h.98z"/><path d="m7.34 15.42h1.84v.75h-2.73v-4.41h.88v3.66z"/><path d="m11.67 13.05c-.08-.31-.26-.62-.61-.62-.29 0-.54.21-.54.51 0 .87 2.07.3 2.07 1.94 0 .54-.41 1.34-1.5 1.34-.84 0-1.45-.41-1.58-1.27l.88-.13c.08.37.27.65.69.65.35 0 .63-.18.63-.56 0-.88-2.07-.37-2.07-1.88 0-.79.67-1.36 1.43-1.36.75 0 1.31.48 1.38 1.22z"/><path d="m15.12 13.92 1.34 2.24h-1.03l-.8-1.44-.84 1.44h-.99l1.35-2.24-1.23-2.17h1.03l.71 1.42.77-1.42h.98z"/></g></svg>